<?xml version="1.0" encoding="utf-8" standalone="no"?>
<!DOCTYPE svg PUBLIC "-//W3C//DTD SVG 1.1//EN"
  "http://www.w3.org/Graphics/SVG/1.1/DTD/svg11.dtd">
<!-- Created with matplotlib (https://matplotlib.org/) -->
<svg height="290.7pt" version="1.1" viewBox="0 0 421.366077 290.7" width="421.366077pt" xmlns="http://www.w3.org/2000/svg" xmlns:xlink="http://www.w3.org/1999/xlink">
 <metadata>
  <rdf:RDF xmlns:cc="http://creativecommons.org/ns#" xmlns:dc="http://purl.org/dc/elements/1.1/" xmlns:rdf="http://www.w3.org/1999/02/22-rdf-syntax-ns#">
   <cc:Work>
    <dc:type rdf:resource="http://purl.org/dc/dcmitype/StillImage"/>
    <dc:date>2020-12-14T13:33:52.628735</dc:date>
    <dc:format>image/svg+xml</dc:format>
    <dc:creator>
     <cc:Agent>
      <dc:title>Matplotlib v3.3.3, https://matplotlib.org/</dc:title>
     </cc:Agent>
    </dc:creator>
   </cc:Work>
  </rdf:RDF>
 </metadata>
 <defs>
  <style type="text/css">*{stroke-linecap:butt;stroke-linejoin:round;}</style>
 </defs>
 <g id="figure_1">
  <g id="patch_1">
   <path d="M 0 290.7 
L 421.366077 290.7 
L 421.366077 0 
L 0 0 
z
" style="fill:none;"/>
  </g>
  <g id="axes_1">
   <g id="patch_2">
    <path d="M 35.097895 283.5 
L 410.966077 283.5 
L 410.966077 17.6 
L 35.097895 17.6 
z
" style="fill:#ffffff;"/>
   </g>
   <g id="matplotlib.axis_1">
    <g id="xtick_1">
     <g id="line2d_1">
      <defs>
       <path d="M 0 0 
L 0 3.5 
" id="m647a254046" style="stroke:#000000;stroke-width:0.8;"/>
      </defs>
      <g>
       <use style="stroke:#000000;stroke-width:0.8;" x="52.182812" xlink:href="#m647a254046" y="199.545484"/>
      </g>
     </g>
     <g id="text_1">
      <!-- 0.0 -->
      <g transform="translate(44.23125 214.143922)scale(0.1 -0.1)">
       <defs>
        <path d="M 31.78125 66.40625 
Q 24.171875 66.40625 20.328125 58.90625 
Q 16.5 51.421875 16.5 36.375 
Q 16.5 21.390625 20.328125 13.890625 
Q 24.171875 6.390625 31.78125 6.390625 
Q 39.453125 6.390625 43.28125 13.890625 
Q 47.125 21.390625 47.125 36.375 
Q 47.125 51.421875 43.28125 58.90625 
Q 39.453125 66.40625 31.78125 66.40625 
z
M 31.78125 74.21875 
Q 44.046875 74.21875 50.515625 64.515625 
Q 56.984375 54.828125 56.984375 36.375 
Q 56.984375 17.96875 50.515625 8.265625 
Q 44.046875 -1.421875 31.78125 -1.421875 
Q 19.53125 -1.421875 13.0625 8.265625 
Q 6.59375 17.96875 6.59375 36.375 
Q 6.59375 54.828125 13.0625 64.515625 
Q 19.53125 74.21875 31.78125 74.21875 
z
" id="DejaVuSans-48"/>
        <path d="M 10.6875 12.40625 
L 21 12.40625 
L 21 0 
L 10.6875 0 
z
" id="DejaVuSans-46"/>
       </defs>
       <use xlink:href="#DejaVuSans-48"/>
       <use x="63.623047" xlink:href="#DejaVuSans-46"/>
       <use x="95.410156" xlink:href="#DejaVuSans-48"/>
      </g>
     </g>
    </g>
    <g id="xtick_2">
     <g id="line2d_2">
      <g>
       <use style="stroke:#000000;stroke-width:0.8;" x="120.522482" xlink:href="#m647a254046" y="199.545484"/>
      </g>
     </g>
     <g id="text_2">
      <!-- 0.2 -->
      <g transform="translate(112.570919 214.143922)scale(0.1 -0.1)">
       <defs>
        <path d="M 19.1875 8.296875 
L 53.609375 8.296875 
L 53.609375 0 
L 7.328125 0 
L 7.328125 8.296875 
Q 12.9375 14.109375 22.625 23.890625 
Q 32.328125 33.6875 34.8125 36.53125 
Q 39.546875 41.84375 41.421875 45.53125 
Q 43.3125 49.21875 43.3125 52.78125 
Q 43.3125 58.59375 39.234375 62.25 
Q 35.15625 65.921875 28.609375 65.921875 
Q 23.96875 65.921875 18.8125 64.3125 
Q 13.671875 62.703125 7.8125 59.421875 
L 7.8125 69.390625 
Q 13.765625 71.78125 18.9375 73 
Q 24.125 74.21875 28.421875 74.21875 
Q 39.75 74.21875 46.484375 68.546875 
Q 53.21875 62.890625 53.21875 53.421875 
Q 53.21875 48.921875 51.53125 44.890625 
Q 49.859375 40.875 45.40625 35.40625 
Q 44.1875 33.984375 37.640625 27.21875 
Q 31.109375 20.453125 19.1875 8.296875 
z
" id="DejaVuSans-50"/>
       </defs>
       <use xlink:href="#DejaVuSans-48"/>
       <use x="63.623047" xlink:href="#DejaVuSans-46"/>
       <use x="95.410156" xlink:href="#DejaVuSans-50"/>
      </g>
     </g>
    </g>
    <g id="xtick_3">
     <g id="line2d_3">
      <g>
       <use style="stroke:#000000;stroke-width:0.8;" x="188.862151" xlink:href="#m647a254046" y="199.545484"/>
      </g>
     </g>
     <g id="text_3">
      <!-- 0.4 -->
      <g transform="translate(180.910589 214.143922)scale(0.1 -0.1)">
       <defs>
        <path d="M 37.796875 64.3125 
L 12.890625 25.390625 
L 37.796875 25.390625 
z
M 35.203125 72.90625 
L 47.609375 72.90625 
L 47.609375 25.390625 
L 58.015625 25.390625 
L 58.015625 17.1875 
L 47.609375 17.1875 
L 47.609375 0 
L 37.796875 0 
L 37.796875 17.1875 
L 4.890625 17.1875 
L 4.890625 26.703125 
z
" id="DejaVuSans-52"/>
       </defs>
       <use xlink:href="#DejaVuSans-48"/>
       <use x="63.623047" xlink:href="#DejaVuSans-46"/>
       <use x="95.410156" xlink:href="#DejaVuSans-52"/>
      </g>
     </g>
    </g>
    <g id="xtick_4">
     <g id="line2d_4">
      <g>
       <use style="stroke:#000000;stroke-width:0.8;" x="257.201821" xlink:href="#m647a254046" y="199.545484"/>
      </g>
     </g>
     <g id="text_4">
      <!-- 0.6 -->
      <g transform="translate(249.250258 214.143922)scale(0.1 -0.1)">
       <defs>
        <path d="M 33.015625 40.375 
Q 26.375 40.375 22.484375 35.828125 
Q 18.609375 31.296875 18.609375 23.390625 
Q 18.609375 15.53125 22.484375 10.953125 
Q 26.375 6.390625 33.015625 6.390625 
Q 39.65625 6.390625 43.53125 10.953125 
Q 47.40625 15.53125 47.40625 23.390625 
Q 47.40625 31.296875 43.53125 35.828125 
Q 39.65625 40.375 33.015625 40.375 
z
M 52.59375 71.296875 
L 52.59375 62.3125 
Q 48.875 64.0625 45.09375 64.984375 
Q 41.3125 65.921875 37.59375 65.921875 
Q 27.828125 65.921875 22.671875 59.328125 
Q 17.53125 52.734375 16.796875 39.40625 
Q 19.671875 43.65625 24.015625 45.921875 
Q 28.375 48.1875 33.59375 48.1875 
Q 44.578125 48.1875 50.953125 41.515625 
Q 57.328125 34.859375 57.328125 23.390625 
Q 57.328125 12.15625 50.6875 5.359375 
Q 44.046875 -1.421875 33.015625 -1.421875 
Q 20.359375 -1.421875 13.671875 8.265625 
Q 6.984375 17.96875 6.984375 36.375 
Q 6.984375 53.65625 15.1875 63.9375 
Q 23.390625 74.21875 37.203125 74.21875 
Q 40.921875 74.21875 44.703125 73.484375 
Q 48.484375 72.75 52.59375 71.296875 
z
" id="DejaVuSans-54"/>
       </defs>
       <use xlink:href="#DejaVuSans-48"/>
       <use x="63.623047" xlink:href="#DejaVuSans-46"/>
       <use x="95.410156" xlink:href="#DejaVuSans-54"/>
      </g>
     </g>
    </g>
    <g id="xtick_5">
     <g id="line2d_5">
      <g>
       <use style="stroke:#000000;stroke-width:0.8;" x="325.54149" xlink:href="#m647a254046" y="199.545484"/>
      </g>
     </g>
     <g id="text_5">
      <!-- 0.8 -->
      <g transform="translate(317.589928 214.143922)scale(0.1 -0.1)">
       <defs>
        <path d="M 31.78125 34.625 
Q 24.75 34.625 20.71875 30.859375 
Q 16.703125 27.09375 16.703125 20.515625 
Q 16.703125 13.921875 20.71875 10.15625 
Q 24.75 6.390625 31.78125 6.390625 
Q 38.8125 6.390625 42.859375 10.171875 
Q 46.921875 13.96875 46.921875 20.515625 
Q 46.921875 27.09375 42.890625 30.859375 
Q 38.875 34.625 31.78125 34.625 
z
M 21.921875 38.8125 
Q 15.578125 40.375 12.03125 44.71875 
Q 8.5 49.078125 8.5 55.328125 
Q 8.5 64.0625 14.71875 69.140625 
Q 20.953125 74.21875 31.78125 74.21875 
Q 42.671875 74.21875 48.875 69.140625 
Q 55.078125 64.0625 55.078125 55.328125 
Q 55.078125 49.078125 51.53125 44.71875 
Q 48 40.375 41.703125 38.8125 
Q 48.828125 37.15625 52.796875 32.3125 
Q 56.78125 27.484375 56.78125 20.515625 
Q 56.78125 9.90625 50.3125 4.234375 
Q 43.84375 -1.421875 31.78125 -1.421875 
Q 19.734375 -1.421875 13.25 4.234375 
Q 6.78125 9.90625 6.78125 20.515625 
Q 6.78125 27.484375 10.78125 32.3125 
Q 14.796875 37.15625 21.921875 38.8125 
z
M 18.3125 54.390625 
Q 18.3125 48.734375 21.84375 45.5625 
Q 25.390625 42.390625 31.78125 42.390625 
Q 38.140625 42.390625 41.71875 45.5625 
Q 45.3125 48.734375 45.3125 54.390625 
Q 45.3125 60.0625 41.71875 63.234375 
Q 38.140625 66.40625 31.78125 66.40625 
Q 25.390625 66.40625 21.84375 63.234375 
Q 18.3125 60.0625 18.3125 54.390625 
z
" id="DejaVuSans-56"/>
       </defs>
       <use xlink:href="#DejaVuSans-48"/>
       <use x="63.623047" xlink:href="#DejaVuSans-46"/>
       <use x="95.410156" xlink:href="#DejaVuSans-56"/>
      </g>
     </g>
    </g>
    <g id="xtick_6">
     <g id="line2d_6">
      <g>
       <use style="stroke:#000000;stroke-width:0.8;" x="393.88116" xlink:href="#m647a254046" y="199.545484"/>
      </g>
     </g>
     <g id="text_6">
      <!-- 1.0 -->
      <g transform="translate(385.929597 214.143922)scale(0.1 -0.1)">
       <defs>
        <path d="M 12.40625 8.296875 
L 28.515625 8.296875 
L 28.515625 63.921875 
L 10.984375 60.40625 
L 10.984375 69.390625 
L 28.421875 72.90625 
L 38.28125 72.90625 
L 38.28125 8.296875 
L 54.390625 8.296875 
L 54.390625 0 
L 12.40625 0 
z
" id="DejaVuSans-49"/>
       </defs>
       <use xlink:href="#DejaVuSans-49"/>
       <use x="63.623047" xlink:href="#DejaVuSans-46"/>
       <use x="95.410156" xlink:href="#DejaVuSans-48"/>
      </g>
     </g>
    </g>
    <g id="text_7">
     <!-- $\rho$ -->
     <g transform="translate(407.766077 227.801734)scale(0.1 -0.1)">
      <defs>
       <path d="M 18.796875 44.921875 
Q 22.703125 49.90625 30.953125 54.296875 
Q 34.1875 56 43.0625 56 
Q 53.03125 56 57.71875 48.09375 
Q 62.40625 40.1875 59.90625 27.296875 
Q 57.375 14.40625 49.609375 6.484375 
Q 41.84375 -1.421875 31.890625 -1.421875 
Q 25.875 -1.421875 22.015625 0.984375 
Q 18.171875 3.328125 16.3125 8.203125 
L 10.640625 -20.796875 
L 1.609375 -20.796875 
L 10.890625 26.8125 
Q 13.09375 38.09375 18.796875 44.921875 
z
M 50.59375 27.296875 
Q 52.484375 37.203125 49.515625 42.875 
Q 46.53125 48.484375 39.40625 48.484375 
Q 32.28125 48.484375 27.09375 42.875 
Q 21.921875 37.203125 20.015625 27.296875 
Q 18.0625 17.390625 21.046875 11.71875 
Q 24.03125 6.109375 31.15625 6.109375 
Q 38.28125 6.109375 43.453125 11.71875 
Q 48.640625 17.390625 50.59375 27.296875 
z
" id="DejaVuSans-Oblique-961"/>
      </defs>
      <use xlink:href="#DejaVuSans-Oblique-961"/>
     </g>
    </g>
   </g>
   <g id="matplotlib.axis_2">
    <g id="ytick_1">
     <g id="line2d_7">
      <defs>
       <path d="M 0 0 
L -3.5 0 
" id="m93e9af9fb3" style="stroke:#000000;stroke-width:0.8;"/>
      </defs>
      <g>
       <use style="stroke:#000000;stroke-width:0.8;" x="52.182812" xlink:href="#m93e9af9fb3" y="257.040006"/>
      </g>
     </g>
     <g id="text_8">
      <!-- −0.2 -->
      <g transform="translate(20.9 260.839225)scale(0.1 -0.1)">
       <defs>
        <path d="M 10.59375 35.5 
L 73.1875 35.5 
L 73.1875 27.203125 
L 10.59375 27.203125 
z
" id="DejaVuSans-8722"/>
       </defs>
       <use xlink:href="#DejaVuSans-8722"/>
       <use x="83.789062" xlink:href="#DejaVuSans-48"/>
       <use x="147.412109" xlink:href="#DejaVuSans-46"/>
       <use x="179.199219" xlink:href="#DejaVuSans-50"/>
      </g>
     </g>
    </g>
    <g id="ytick_2">
     <g id="line2d_8">
      <g>
       <use style="stroke:#000000;stroke-width:0.8;" x="52.182812" xlink:href="#m93e9af9fb3" y="199.545484"/>
      </g>
     </g>
     <g id="text_9">
      <!-- 0.0 -->
      <g transform="translate(29.279687 203.344703)scale(0.1 -0.1)">
       <use xlink:href="#DejaVuSans-48"/>
       <use x="63.623047" xlink:href="#DejaVuSans-46"/>
       <use x="95.410156" xlink:href="#DejaVuSans-48"/>
      </g>
     </g>
    </g>
    <g id="ytick_3">
     <g id="line2d_9">
      <g>
       <use style="stroke:#000000;stroke-width:0.8;" x="52.182812" xlink:href="#m93e9af9fb3" y="142.050963"/>
      </g>
     </g>
     <g id="text_10">
      <!-- 0.2 -->
      <g transform="translate(29.279687 145.850181)scale(0.1 -0.1)">
       <use xlink:href="#DejaVuSans-48"/>
       <use x="63.623047" xlink:href="#DejaVuSans-46"/>
       <use x="95.410156" xlink:href="#DejaVuSans-50"/>
      </g>
     </g>
    </g>
    <g id="ytick_4">
     <g id="line2d_10">
      <g>
       <use style="stroke:#000000;stroke-width:0.8;" x="52.182812" xlink:href="#m93e9af9fb3" y="84.556441"/>
      </g>
     </g>
     <g id="text_11">
      <!-- 0.4 -->
      <g transform="translate(29.279687 88.35566)scale(0.1 -0.1)">
       <use xlink:href="#DejaVuSans-48"/>
       <use x="63.623047" xlink:href="#DejaVuSans-46"/>
       <use x="95.410156" xlink:href="#DejaVuSans-52"/>
      </g>
     </g>
    </g>
    <g id="ytick_5">
     <g id="line2d_11">
      <g>
       <use style="stroke:#000000;stroke-width:0.8;" x="52.182812" xlink:href="#m93e9af9fb3" y="27.061919"/>
      </g>
     </g>
     <g id="text_12">
      <!-- 0.6 -->
      <g transform="translate(29.279687 30.861138)scale(0.1 -0.1)">
       <use xlink:href="#DejaVuSans-48"/>
       <use x="63.623047" xlink:href="#DejaVuSans-46"/>
       <use x="95.410156" xlink:href="#DejaVuSans-54"/>
      </g>
     </g>
    </g>
    <g id="text_13">
     <!-- $\psi(\rho)$ -->
     <g transform="translate(14.8 28)rotate(-90)scale(0.1 -0.1)">
      <defs>
       <path d="M 24.859375 -1.21875 
Q 13.921875 0.59375 9.625 5.328125 
Q 4.34375 11.140625 6.640625 23 
L 12.796875 54.6875 
L 21.875 54.6875 
L 15.765625 23.34375 
Q 14.0625 14.40625 17.484375 10.6875 
Q 20.515625 7.46875 26.421875 6.78125 
L 35.6875 54.6875 
L 44.625 54.6875 
L 35.359375 6.84375 
Q 41.890625 7.515625 45.75 10.75 
Q 50.734375 14.84375 52.390625 23.390625 
L 58.453125 54.6875 
L 67.53125 54.6875 
L 61.375 23.046875 
Q 58.984375 10.75 51.5625 5.375 
Q 44.875 0.53125 33.796875 -1.171875 
L 29.984375 -20.796875 
L 21.046875 -20.796875 
z
" id="DejaVuSans-Oblique-968"/>
       <path d="M 31 75.875 
Q 24.46875 64.65625 21.28125 53.65625 
Q 18.109375 42.671875 18.109375 31.390625 
Q 18.109375 20.125 21.3125 9.0625 
Q 24.515625 -2 31 -13.1875 
L 23.1875 -13.1875 
Q 15.875 -1.703125 12.234375 9.375 
Q 8.59375 20.453125 8.59375 31.390625 
Q 8.59375 42.28125 12.203125 53.3125 
Q 15.828125 64.359375 23.1875 75.875 
z
" id="DejaVuSans-40"/>
       <path d="M 8.015625 75.875 
L 15.828125 75.875 
Q 23.140625 64.359375 26.78125 53.3125 
Q 30.421875 42.28125 30.421875 31.390625 
Q 30.421875 20.453125 26.78125 9.375 
Q 23.140625 -1.703125 15.828125 -13.1875 
L 8.015625 -13.1875 
Q 14.5 -2 17.703125 9.0625 
Q 20.90625 20.125 20.90625 31.390625 
Q 20.90625 42.671875 17.703125 53.65625 
Q 14.5 64.65625 8.015625 75.875 
z
" id="DejaVuSans-41"/>
      </defs>
      <use transform="translate(0 0.125)" xlink:href="#DejaVuSans-Oblique-968"/>
      <use transform="translate(65.966797 0.125)" xlink:href="#DejaVuSans-40"/>
      <use transform="translate(104.980469 0.125)" xlink:href="#DejaVuSans-Oblique-961"/>
      <use transform="translate(168.457031 0.125)" xlink:href="#DejaVuSans-41"/>
     </g>
    </g>
   </g>
   <g id="LineCollection_1">
    <path clip-path="url(#paefaa03f33)" d="M 52.182812 271.413636 
L 57.22597 270.352834 
" style="fill:none;stroke:#000000;stroke-width:1.5;"/>
    <path clip-path="url(#paefaa03f33)" d="M 57.22597 270.352834 
L 61.833498 269.381605 
" style="fill:none;stroke:#000000;stroke-width:1.5;"/>
    <path clip-path="url(#paefaa03f33)" d="M 61.833498 269.381605 
L 67.616813 268.146012 
" style="fill:none;stroke:#000000;stroke-width:1.5;"/>
    <path clip-path="url(#paefaa03f33)" d="M 67.616813 268.146012 
L 73.342863 266.868034 
" style="fill:none;stroke:#000000;stroke-width:1.5;"/>
    <path clip-path="url(#paefaa03f33)" d="M 73.342863 266.868034 
L 79.381968 265.389541 
" style="fill:none;stroke:#000000;stroke-width:1.5;"/>
    <path clip-path="url(#paefaa03f33)" d="M 79.381968 265.389541 
L 84.55588 263.937716 
" style="fill:none;stroke:#000000;stroke-width:1.5;"/>
    <path clip-path="url(#paefaa03f33)" d="M 84.55588 263.937716 
L 89.368329 262.359341 
" style="fill:none;stroke:#000000;stroke-width:1.5;"/>
    <path clip-path="url(#paefaa03f33)" d="M 89.368329 262.359341 
L 94.595973 260.309966 
" style="fill:none;stroke:#000000;stroke-width:1.5;"/>
    <path clip-path="url(#paefaa03f33)" d="M 94.595973 260.309966 
L 99.442028 258.017986 
" style="fill:none;stroke:#000000;stroke-width:1.5;"/>
    <path clip-path="url(#paefaa03f33)" d="M 99.442028 258.017986 
L 103.58326 255.70282 
" style="fill:none;stroke:#000000;stroke-width:1.5;"/>
    <path clip-path="url(#paefaa03f33)" d="M 103.58326 255.70282 
L 108.743935 252.28969 
" style="fill:none;stroke:#000000;stroke-width:1.5;"/>
    <path clip-path="url(#paefaa03f33)" d="M 108.743935 252.28969 
L 111.575308 250.143845 
" style="fill:none;stroke:#000000;stroke-width:1.5;"/>
    <path clip-path="url(#paefaa03f33)" d="M 111.575308 250.143845 
L 114.48278 247.725184 
" style="fill:none;stroke:#000000;stroke-width:1.5;"/>
    <path clip-path="url(#paefaa03f33)" d="M 114.48278 247.725184 
L 119.756877 242.754107 
" style="fill:none;stroke:#000000;stroke-width:1.5;"/>
    <path clip-path="url(#paefaa03f33)" d="M 119.756877 242.754107 
L 124.769457 237.306612 
" style="fill:none;stroke:#000000;stroke-width:1.5;"/>
    <path clip-path="url(#paefaa03f33)" d="M 124.769457 237.306612 
L 129.999276 230.861958 
" style="fill:none;stroke:#000000;stroke-width:1.5;"/>
    <path clip-path="url(#paefaa03f33)" d="M 129.999276 230.861958 
L 136.148421 222.312714 
" style="fill:none;stroke:#000000;stroke-width:1.5;"/>
    <path clip-path="url(#paefaa03f33)" d="M 136.148421 222.312714 
L 142.05086 213.183815 
" style="fill:none;stroke:#000000;stroke-width:1.5;"/>
    <path clip-path="url(#paefaa03f33)" d="M 142.05086 213.183815 
L 147.059776 204.808102 
" style="fill:none;stroke:#000000;stroke-width:1.5;"/>
    <path clip-path="url(#paefaa03f33)" d="M 147.059776 204.808102 
L 153.149393 193.98332 
" style="fill:none;stroke:#000000;stroke-width:1.5;"/>
    <path clip-path="url(#paefaa03f33)" d="M 153.149393 193.98332 
L 158.659627 183.736029 
" style="fill:none;stroke:#000000;stroke-width:1.5;"/>
    <path clip-path="url(#paefaa03f33)" d="M 158.659627 183.736029 
L 164.803972 172.017553 
" style="fill:none;stroke:#000000;stroke-width:1.5;"/>
    <path clip-path="url(#paefaa03f33)" d="M 164.803972 172.017553 
L 170.967512 160.207014 
" style="fill:none;stroke:#000000;stroke-width:1.5;"/>
    <path clip-path="url(#paefaa03f33)" d="M 170.967512 160.207014 
L 177.641522 147.680327 
" style="fill:none;stroke:#000000;stroke-width:1.5;"/>
    <path clip-path="url(#paefaa03f33)" d="M 177.641522 147.680327 
L 184.147423 136.069329 
" style="fill:none;stroke:#000000;stroke-width:1.5;"/>
    <path clip-path="url(#paefaa03f33)" d="M 184.147423 136.069329 
L 191.228075 124.493608 
" style="fill:none;stroke:#000000;stroke-width:1.5;"/>
    <path clip-path="url(#paefaa03f33)" d="M 191.228075 124.493608 
L 197.065879 116.053146 
" style="fill:none;stroke:#000000;stroke-width:1.5;"/>
    <path clip-path="url(#paefaa03f33)" d="M 197.065879 116.053146 
L 200.213629 111.991922 
" style="fill:none;stroke:#000000;stroke-width:1.5;"/>
    <path clip-path="url(#paefaa03f33)" d="M 200.213629 111.991922 
L 203.275496 108.404646 
" style="fill:none;stroke:#000000;stroke-width:1.5;"/>
    <path clip-path="url(#paefaa03f33)" d="M 203.275496 108.404646 
L 206.150915 105.382018 
" style="fill:none;stroke:#000000;stroke-width:1.5;"/>
    <path clip-path="url(#paefaa03f33)" d="M 206.150915 105.382018 
L 208.605862 103.079339 
" style="fill:none;stroke:#000000;stroke-width:1.5;"/>
    <path clip-path="url(#paefaa03f33)" d="M 208.605862 103.079339 
L 210.510358 101.475342 
" style="fill:none;stroke:#000000;stroke-width:1.5;"/>
    <path clip-path="url(#paefaa03f33)" d="M 210.510358 101.475342 
L 212.195235 100.192339 
" style="fill:none;stroke:#000000;stroke-width:1.5;"/>
    <path clip-path="url(#paefaa03f33)" d="M 212.195235 100.192339 
L 214.128314 98.880541 
" style="fill:none;stroke:#000000;stroke-width:1.5;"/>
    <path clip-path="url(#paefaa03f33)" d="M 214.128314 98.880541 
L 215.865534 97.849895 
" style="fill:none;stroke:#000000;stroke-width:1.5;"/>
    <path clip-path="url(#paefaa03f33)" d="M 215.865534 97.849895 
L 217.867089 96.838626 
" style="fill:none;stroke:#000000;stroke-width:1.5;"/>
    <path clip-path="url(#paefaa03f33)" d="M 217.867089 96.838626 
L 218.777845 96.44144 
" style="fill:none;stroke:#000000;stroke-width:1.5;"/>
    <path clip-path="url(#paefaa03f33)" d="M 218.777845 96.44144 
L 219.842125 96.027472 
" style="fill:none;stroke:#000000;stroke-width:1.5;"/>
    <path clip-path="url(#paefaa03f33)" d="M 219.842125 96.027472 
L 221.341406 95.536356 
" style="fill:none;stroke:#000000;stroke-width:1.5;"/>
    <path clip-path="url(#paefaa03f33)" d="M 221.341406 95.536356 
L 222.294951 95.280154 
" style="fill:none;stroke:#000000;stroke-width:1.5;"/>
    <path clip-path="url(#paefaa03f33)" d="M 222.294951 95.280154 
L 223.103306 95.097198 
" style="fill:none;stroke:#000000;stroke-width:1.5;"/>
    <path clip-path="url(#paefaa03f33)" d="M 223.103306 95.097198 
L 224.682557 94.830411 
" style="fill:none;stroke:#000000;stroke-width:1.5;"/>
    <path clip-path="url(#paefaa03f33)" d="M 224.682557 94.830411 
L 225.667268 94.724707 
" style="fill:none;stroke:#000000;stroke-width:1.5;"/>
    <path clip-path="url(#paefaa03f33)" d="M 225.667268 94.724707 
L 226.518411 94.670807 
" style="fill:none;stroke:#000000;stroke-width:1.5;"/>
    <path clip-path="url(#paefaa03f33)" d="M 226.518411 94.670807 
L 228.070196 94.661675 
" style="fill:none;stroke:#000000;stroke-width:1.5;"/>
    <path clip-path="url(#paefaa03f33)" d="M 228.070196 94.661675 
L 229.562008 94.760923 
" style="fill:none;stroke:#000000;stroke-width:1.5;"/>
    <path clip-path="url(#paefaa03f33)" d="M 229.562008 94.760923 
L 230.787988 94.921229 
" style="fill:none;stroke:#000000;stroke-width:1.5;"/>
    <path clip-path="url(#paefaa03f33)" d="M 230.787988 94.921229 
L 232.245475 95.203474 
" style="fill:none;stroke:#000000;stroke-width:1.5;"/>
    <path clip-path="url(#paefaa03f33)" d="M 232.245475 95.203474 
L 233.81666 95.618141 
" style="fill:none;stroke:#000000;stroke-width:1.5;"/>
    <path clip-path="url(#paefaa03f33)" d="M 233.81666 95.618141 
L 235.319673 96.120659 
" style="fill:none;stroke:#000000;stroke-width:1.5;"/>
    <path clip-path="url(#paefaa03f33)" d="M 235.319673 96.120659 
L 236.536533 96.602273 
" style="fill:none;stroke:#000000;stroke-width:1.5;"/>
    <path clip-path="url(#paefaa03f33)" d="M 236.536533 96.602273 
L 237.624377 97.088681 
" style="fill:none;stroke:#000000;stroke-width:1.5;"/>
    <path clip-path="url(#paefaa03f33)" d="M 237.624377 97.088681 
L 239.731638 98.178204 
" style="fill:none;stroke:#000000;stroke-width:1.5;"/>
    <path clip-path="url(#paefaa03f33)" d="M 239.731638 98.178204 
L 241.823924 99.447563 
" style="fill:none;stroke:#000000;stroke-width:1.5;"/>
    <path clip-path="url(#paefaa03f33)" d="M 241.823924 99.447563 
L 244.133182 101.058205 
" style="fill:none;stroke:#000000;stroke-width:1.5;"/>
    <path clip-path="url(#paefaa03f33)" d="M 244.133182 101.058205 
L 246.579936 102.994963 
" style="fill:none;stroke:#000000;stroke-width:1.5;"/>
    <path clip-path="url(#paefaa03f33)" d="M 246.579936 102.994963 
L 249.337505 105.447078 
" style="fill:none;stroke:#000000;stroke-width:1.5;"/>
    <path clip-path="url(#paefaa03f33)" d="M 249.337505 105.447078 
L 254.026274 110.220021 
" style="fill:none;stroke:#000000;stroke-width:1.5;"/>
    <path clip-path="url(#paefaa03f33)" d="M 254.026274 110.220021 
L 259.909799 117.146864 
" style="fill:none;stroke:#000000;stroke-width:1.5;"/>
    <path clip-path="url(#paefaa03f33)" d="M 259.909799 117.146864 
L 265.150262 124.027955 
" style="fill:none;stroke:#000000;stroke-width:1.5;"/>
    <path clip-path="url(#paefaa03f33)" d="M 265.150262 124.027955 
L 270.339319 131.330021 
" style="fill:none;stroke:#000000;stroke-width:1.5;"/>
    <path clip-path="url(#paefaa03f33)" d="M 270.339319 131.330021 
L 274.742041 137.780004 
" style="fill:none;stroke:#000000;stroke-width:1.5;"/>
    <path clip-path="url(#paefaa03f33)" d="M 274.742041 137.780004 
L 280.209273 145.948754 
" style="fill:none;stroke:#000000;stroke-width:1.5;"/>
    <path clip-path="url(#paefaa03f33)" d="M 280.209273 145.948754 
L 285.532704 153.897271 
" style="fill:none;stroke:#000000;stroke-width:1.5;"/>
    <path clip-path="url(#paefaa03f33)" d="M 285.532704 153.897271 
L 291.061086 161.959146 
" style="fill:none;stroke:#000000;stroke-width:1.5;"/>
    <path clip-path="url(#paefaa03f33)" d="M 291.061086 161.959146 
L 295.6649 168.395794 
" style="fill:none;stroke:#000000;stroke-width:1.5;"/>
    <path clip-path="url(#paefaa03f33)" d="M 295.6649 168.395794 
L 300.332182 174.563343 
" style="fill:none;stroke:#000000;stroke-width:1.5;"/>
    <path clip-path="url(#paefaa03f33)" d="M 300.332182 174.563343 
L 305.705996 181.111845 
" style="fill:none;stroke:#000000;stroke-width:1.5;"/>
    <path clip-path="url(#paefaa03f33)" d="M 305.705996 181.111845 
L 310.593155 186.471737 
" style="fill:none;stroke:#000000;stroke-width:1.5;"/>
    <path clip-path="url(#paefaa03f33)" d="M 310.593155 186.471737 
L 315.065503 190.82892 
" style="fill:none;stroke:#000000;stroke-width:1.5;"/>
    <path clip-path="url(#paefaa03f33)" d="M 315.065503 190.82892 
L 319.702647 194.762293 
" style="fill:none;stroke:#000000;stroke-width:1.5;"/>
    <path clip-path="url(#paefaa03f33)" d="M 319.702647 194.762293 
L 322.81412 197.059878 
" style="fill:none;stroke:#000000;stroke-width:1.5;"/>
    <path clip-path="url(#paefaa03f33)" d="M 322.81412 197.059878 
L 325.366112 198.738679 
" style="fill:none;stroke:#000000;stroke-width:1.5;"/>
    <path clip-path="url(#paefaa03f33)" d="M 325.366112 198.738679 
L 327.611678 200.06369 
" style="fill:none;stroke:#000000;stroke-width:1.5;"/>
    <path clip-path="url(#paefaa03f33)" d="M 327.611678 200.06369 
L 330.227304 201.429992 
" style="fill:none;stroke:#000000;stroke-width:1.5;"/>
    <path clip-path="url(#paefaa03f33)" d="M 330.227304 201.429992 
L 332.820542 202.60059 
" style="fill:none;stroke:#000000;stroke-width:1.5;"/>
    <path clip-path="url(#paefaa03f33)" d="M 332.820542 202.60059 
L 335.038315 203.460537 
" style="fill:none;stroke:#000000;stroke-width:1.5;"/>
    <path clip-path="url(#paefaa03f33)" d="M 335.038315 203.460537 
L 337.470622 204.259299 
" style="fill:none;stroke:#000000;stroke-width:1.5;"/>
    <path clip-path="url(#paefaa03f33)" d="M 337.470622 204.259299 
L 339.904892 204.913751 
" style="fill:none;stroke:#000000;stroke-width:1.5;"/>
    <path clip-path="url(#paefaa03f33)" d="M 339.904892 204.913751 
L 342.372774 205.436637 
" style="fill:none;stroke:#000000;stroke-width:1.5;"/>
    <path clip-path="url(#paefaa03f33)" d="M 342.372774 205.436637 
L 344.78439 205.818743 
" style="fill:none;stroke:#000000;stroke-width:1.5;"/>
    <path clip-path="url(#paefaa03f33)" d="M 344.78439 205.818743 
L 347.458956 206.103703 
" style="fill:none;stroke:#000000;stroke-width:1.5;"/>
    <path clip-path="url(#paefaa03f33)" d="M 347.458956 206.103703 
L 350.065148 206.252 
" style="fill:none;stroke:#000000;stroke-width:1.5;"/>
    <path clip-path="url(#paefaa03f33)" d="M 350.065148 206.252 
L 354.406112 206.247128 
" style="fill:none;stroke:#000000;stroke-width:1.5;"/>
    <path clip-path="url(#paefaa03f33)" d="M 354.406112 206.247128 
L 358.814945 205.968758 
" style="fill:none;stroke:#000000;stroke-width:1.5;"/>
    <path clip-path="url(#paefaa03f33)" d="M 358.814945 205.968758 
L 362.50124 205.565498 
" style="fill:none;stroke:#000000;stroke-width:1.5;"/>
    <path clip-path="url(#paefaa03f33)" d="M 362.50124 205.565498 
L 367.074354 204.899759 
" style="fill:none;stroke:#000000;stroke-width:1.5;"/>
    <path clip-path="url(#paefaa03f33)" d="M 367.074354 204.899759 
L 372.200759 203.998944 
" style="fill:none;stroke:#000000;stroke-width:1.5;"/>
    <path clip-path="url(#paefaa03f33)" d="M 372.200759 203.998944 
L 378.060931 202.848769 
" style="fill:none;stroke:#000000;stroke-width:1.5;"/>
    <path clip-path="url(#paefaa03f33)" d="M 378.060931 202.848769 
L 383.790803 201.664973 
" style="fill:none;stroke:#000000;stroke-width:1.5;"/>
    <path clip-path="url(#paefaa03f33)" d="M 383.790803 201.664973 
L 389.191111 200.53186 
" style="fill:none;stroke:#000000;stroke-width:1.5;"/>
    <path clip-path="url(#paefaa03f33)" d="M 389.191111 200.53186 
L 393.88116 199.545484 
" style="fill:none;stroke:#000000;stroke-width:1.5;"/>
   </g>
   <g id="LineCollection_2">
    <path clip-path="url(#paefaa03f33)" d="M 52.182812 60.470406 
L 57.772683 60.374939 
" style="fill:none;stroke:#1f77b4;stroke-width:1.5;"/>
    <path clip-path="url(#paefaa03f33)" d="M 57.772683 60.374939 
L 63.65815 60.071181 
" style="fill:none;stroke:#1f77b4;stroke-width:1.5;"/>
    <path clip-path="url(#paefaa03f33)" d="M 63.65815 60.071181 
L 69.265312 59.592301 
" style="fill:none;stroke:#1f77b4;stroke-width:1.5;"/>
    <path clip-path="url(#paefaa03f33)" d="M 69.265312 59.592301 
L 75.142369 58.896772 
" style="fill:none;stroke:#1f77b4;stroke-width:1.5;"/>
    <path clip-path="url(#paefaa03f33)" d="M 75.142369 58.896772 
L 79.591947 58.241625 
" style="fill:none;stroke:#1f77b4;stroke-width:1.5;"/>
    <path clip-path="url(#paefaa03f33)" d="M 79.591947 58.241625 
L 84.558547 57.383053 
" style="fill:none;stroke:#1f77b4;stroke-width:1.5;"/>
    <path clip-path="url(#paefaa03f33)" d="M 84.558547 57.383053 
L 90.138275 56.263433 
" style="fill:none;stroke:#1f77b4;stroke-width:1.5;"/>
    <path clip-path="url(#paefaa03f33)" d="M 90.138275 56.263433 
L 94.971003 55.166504 
" style="fill:none;stroke:#1f77b4;stroke-width:1.5;"/>
    <path clip-path="url(#paefaa03f33)" d="M 94.971003 55.166504 
L 99.255377 54.100169 
" style="fill:none;stroke:#1f77b4;stroke-width:1.5;"/>
    <path clip-path="url(#paefaa03f33)" d="M 99.255377 54.100169 
L 103.553568 52.946839 
" style="fill:none;stroke:#1f77b4;stroke-width:1.5;"/>
    <path clip-path="url(#paefaa03f33)" d="M 103.553568 52.946839 
L 108.853468 51.418272 
" style="fill:none;stroke:#1f77b4;stroke-width:1.5;"/>
    <path clip-path="url(#paefaa03f33)" d="M 108.853468 51.418272 
L 113.374805 50.030613 
" style="fill:none;stroke:#1f77b4;stroke-width:1.5;"/>
    <path clip-path="url(#paefaa03f33)" d="M 113.374805 50.030613 
L 117.949481 48.558666 
" style="fill:none;stroke:#1f77b4;stroke-width:1.5;"/>
    <path clip-path="url(#paefaa03f33)" d="M 117.949481 48.558666 
L 122.008397 47.204819 
" style="fill:none;stroke:#1f77b4;stroke-width:1.5;"/>
    <path clip-path="url(#paefaa03f33)" d="M 122.008397 47.204819 
L 126.384856 45.705718 
" style="fill:none;stroke:#1f77b4;stroke-width:1.5;"/>
    <path clip-path="url(#paefaa03f33)" d="M 126.384856 45.705718 
L 130.45039 44.287619 
" style="fill:none;stroke:#1f77b4;stroke-width:1.5;"/>
    <path clip-path="url(#paefaa03f33)" d="M 130.45039 44.287619 
L 136.059514 42.312641 
" style="fill:none;stroke:#1f77b4;stroke-width:1.5;"/>
    <path clip-path="url(#paefaa03f33)" d="M 136.059514 42.312641 
L 141.671829 40.345588 
" style="fill:none;stroke:#1f77b4;stroke-width:1.5;"/>
    <path clip-path="url(#paefaa03f33)" d="M 141.671829 40.345588 
L 146.6561 38.635747 
" style="fill:none;stroke:#1f77b4;stroke-width:1.5;"/>
    <path clip-path="url(#paefaa03f33)" d="M 146.6561 38.635747 
L 151.564813 37.013797 
" style="fill:none;stroke:#1f77b4;stroke-width:1.5;"/>
    <path clip-path="url(#paefaa03f33)" d="M 151.564813 37.013797 
L 156.57208 35.451495 
" style="fill:none;stroke:#1f77b4;stroke-width:1.5;"/>
    <path clip-path="url(#paefaa03f33)" d="M 156.57208 35.451495 
L 161.259028 34.100288 
" style="fill:none;stroke:#1f77b4;stroke-width:1.5;"/>
    <path clip-path="url(#paefaa03f33)" d="M 161.259028 34.100288 
L 166.421757 32.767355 
" style="fill:none;stroke:#1f77b4;stroke-width:1.5;"/>
    <path clip-path="url(#paefaa03f33)" d="M 166.421757 32.767355 
L 171.158575 31.715882 
" style="fill:none;stroke:#1f77b4;stroke-width:1.5;"/>
    <path clip-path="url(#paefaa03f33)" d="M 171.158575 31.715882 
L 175.976031 30.842315 
" style="fill:none;stroke:#1f77b4;stroke-width:1.5;"/>
    <path clip-path="url(#paefaa03f33)" d="M 175.976031 30.842315 
L 181.213634 30.147136 
" style="fill:none;stroke:#1f77b4;stroke-width:1.5;"/>
    <path clip-path="url(#paefaa03f33)" d="M 181.213634 30.147136 
L 187.174907 29.718151 
" style="fill:none;stroke:#1f77b4;stroke-width:1.5;"/>
    <path clip-path="url(#paefaa03f33)" d="M 187.174907 29.718151 
L 192.194982 29.686364 
" style="fill:none;stroke:#1f77b4;stroke-width:1.5;"/>
    <path clip-path="url(#paefaa03f33)" d="M 192.194982 29.686364 
L 196.458179 29.914151 
" style="fill:none;stroke:#1f77b4;stroke-width:1.5;"/>
    <path clip-path="url(#paefaa03f33)" d="M 196.458179 29.914151 
L 201.137533 30.448781 
" style="fill:none;stroke:#1f77b4;stroke-width:1.5;"/>
    <path clip-path="url(#paefaa03f33)" d="M 201.137533 30.448781 
L 206.397389 31.421223 
" style="fill:none;stroke:#1f77b4;stroke-width:1.5;"/>
    <path clip-path="url(#paefaa03f33)" d="M 206.397389 31.421223 
L 211.498392 32.752874 
" style="fill:none;stroke:#1f77b4;stroke-width:1.5;"/>
    <path clip-path="url(#paefaa03f33)" d="M 211.498392 32.752874 
L 217.055636 34.649123 
" style="fill:none;stroke:#1f77b4;stroke-width:1.5;"/>
    <path clip-path="url(#paefaa03f33)" d="M 217.055636 34.649123 
L 222.139422 36.794504 
" style="fill:none;stroke:#1f77b4;stroke-width:1.5;"/>
    <path clip-path="url(#paefaa03f33)" d="M 222.139422 36.794504 
L 227.592687 39.530304 
" style="fill:none;stroke:#1f77b4;stroke-width:1.5;"/>
    <path clip-path="url(#paefaa03f33)" d="M 227.592687 39.530304 
L 233.725922 43.134496 
" style="fill:none;stroke:#1f77b4;stroke-width:1.5;"/>
    <path clip-path="url(#paefaa03f33)" d="M 233.725922 43.134496 
L 239.637755 47.118173 
" style="fill:none;stroke:#1f77b4;stroke-width:1.5;"/>
    <path clip-path="url(#paefaa03f33)" d="M 239.637755 47.118173 
L 244.69315 50.901388 
" style="fill:none;stroke:#1f77b4;stroke-width:1.5;"/>
    <path clip-path="url(#paefaa03f33)" d="M 244.69315 50.901388 
L 250.644435 55.770121 
" style="fill:none;stroke:#1f77b4;stroke-width:1.5;"/>
    <path clip-path="url(#paefaa03f33)" d="M 250.644435 55.770121 
L 256.464283 60.928575 
" style="fill:none;stroke:#1f77b4;stroke-width:1.5;"/>
    <path clip-path="url(#paefaa03f33)" d="M 256.464283 60.928575 
L 262.349285 66.500295 
" style="fill:none;stroke:#1f77b4;stroke-width:1.5;"/>
    <path clip-path="url(#paefaa03f33)" d="M 262.349285 66.500295 
L 268.774093 72.934642 
" style="fill:none;stroke:#1f77b4;stroke-width:1.5;"/>
    <path clip-path="url(#paefaa03f33)" d="M 268.774093 72.934642 
L 273.590263 77.959968 
" style="fill:none;stroke:#1f77b4;stroke-width:1.5;"/>
    <path clip-path="url(#paefaa03f33)" d="M 273.590263 77.959968 
L 279.05183 83.828035 
" style="fill:none;stroke:#1f77b4;stroke-width:1.5;"/>
    <path clip-path="url(#paefaa03f33)" d="M 279.05183 83.828035 
L 283.880506 89.133774 
" style="fill:none;stroke:#1f77b4;stroke-width:1.5;"/>
    <path clip-path="url(#paefaa03f33)" d="M 283.880506 89.133774 
L 288.765517 94.583413 
" style="fill:none;stroke:#1f77b4;stroke-width:1.5;"/>
    <path clip-path="url(#paefaa03f33)" d="M 288.765517 94.583413 
L 294.258324 100.774388 
" style="fill:none;stroke:#1f77b4;stroke-width:1.5;"/>
    <path clip-path="url(#paefaa03f33)" d="M 294.258324 100.774388 
L 298.9453 106.082443 
" style="fill:none;stroke:#1f77b4;stroke-width:1.5;"/>
    <path clip-path="url(#paefaa03f33)" d="M 298.9453 106.082443 
L 304.069638 111.885101 
" style="fill:none;stroke:#1f77b4;stroke-width:1.5;"/>
    <path clip-path="url(#paefaa03f33)" d="M 304.069638 111.885101 
L 309.61918 118.139142 
" style="fill:none;stroke:#1f77b4;stroke-width:1.5;"/>
    <path clip-path="url(#paefaa03f33)" d="M 309.61918 118.139142 
L 316.57693 125.89301 
" style="fill:none;stroke:#1f77b4;stroke-width:1.5;"/>
    <path clip-path="url(#paefaa03f33)" d="M 316.57693 125.89301 
L 322.624513 132.519966 
" style="fill:none;stroke:#1f77b4;stroke-width:1.5;"/>
    <path clip-path="url(#paefaa03f33)" d="M 322.624513 132.519966 
L 328.122531 138.432509 
" style="fill:none;stroke:#1f77b4;stroke-width:1.5;"/>
    <path clip-path="url(#paefaa03f33)" d="M 328.122531 138.432509 
L 334.110736 144.73487 
" style="fill:none;stroke:#1f77b4;stroke-width:1.5;"/>
    <path clip-path="url(#paefaa03f33)" d="M 334.110736 144.73487 
L 340.602927 151.393773 
" style="fill:none;stroke:#1f77b4;stroke-width:1.5;"/>
    <path clip-path="url(#paefaa03f33)" d="M 340.602927 151.393773 
L 346.203941 156.988284 
" style="fill:none;stroke:#1f77b4;stroke-width:1.5;"/>
    <path clip-path="url(#paefaa03f33)" d="M 346.203941 156.988284 
L 352.431534 163.044851 
" style="fill:none;stroke:#1f77b4;stroke-width:1.5;"/>
    <path clip-path="url(#paefaa03f33)" d="M 352.431534 163.044851 
L 357.986873 168.305357 
" style="fill:none;stroke:#1f77b4;stroke-width:1.5;"/>
    <path clip-path="url(#paefaa03f33)" d="M 357.986873 168.305357 
L 364.050017 173.900222 
" style="fill:none;stroke:#1f77b4;stroke-width:1.5;"/>
    <path clip-path="url(#paefaa03f33)" d="M 364.050017 173.900222 
L 369.116888 178.465004 
" style="fill:none;stroke:#1f77b4;stroke-width:1.5;"/>
    <path clip-path="url(#paefaa03f33)" d="M 369.116888 178.465004 
L 375.06392 183.703037 
" style="fill:none;stroke:#1f77b4;stroke-width:1.5;"/>
    <path clip-path="url(#paefaa03f33)" d="M 375.06392 183.703037 
L 381.057248 188.86151 
" style="fill:none;stroke:#1f77b4;stroke-width:1.5;"/>
    <path clip-path="url(#paefaa03f33)" d="M 381.057248 188.86151 
L 387.287634 194.108066 
" style="fill:none;stroke:#1f77b4;stroke-width:1.5;"/>
    <path clip-path="url(#paefaa03f33)" d="M 387.287634 194.108066 
L 393.88116 199.545484 
" style="fill:none;stroke:#1f77b4;stroke-width:1.5;"/>
   </g>
   <g id="patch_3">
    <path d="M 52.182812 283.5 
L 52.182812 17.6 
" style="fill:none;stroke:#000000;stroke-linecap:square;stroke-linejoin:miter;stroke-width:0.8;"/>
   </g>
   <g id="patch_4">
    <path d="M 410.966077 283.5 
L 410.966077 17.6 
" style="fill:none;"/>
   </g>
   <g id="patch_5">
    <path d="M 35.097895 199.545484 
L 410.966077 199.545484 
" style="fill:none;stroke:#000000;stroke-linecap:square;stroke-linejoin:miter;stroke-width:0.8;"/>
   </g>
   <g id="patch_6">
    <path d="M 35.097895 17.6 
L 410.966077 17.6 
" style="fill:none;"/>
   </g>
   <g id="legend_1">
    <g id="patch_7">
     <path d="M 295.773889 66.174375 
L 403.966077 66.174375 
Q 405.966077 66.174375 405.966077 64.174375 
L 405.966077 24.6 
Q 405.966077 22.6 403.966077 22.6 
L 295.773889 22.6 
Q 293.773889 22.6 293.773889 24.6 
L 293.773889 64.174375 
Q 293.773889 66.174375 295.773889 66.174375 
z
" style="fill:#ffffff;opacity:0.8;stroke:#cccccc;stroke-linejoin:miter;"/>
    </g>
    <g id="line2d_12">
     <path d="M 297.773889 37.337187 
L 317.773889 37.337187 
" style="fill:none;stroke:#000000;stroke-width:1.5;"/>
    </g>
    <g id="text_14">
     <!-- Charge density -->
     <g transform="translate(325.773889 34.198437)scale(0.1 -0.1)">
      <defs>
       <path d="M 64.40625 67.28125 
L 64.40625 56.890625 
Q 59.421875 61.53125 53.78125 63.8125 
Q 48.140625 66.109375 41.796875 66.109375 
Q 29.296875 66.109375 22.65625 58.46875 
Q 16.015625 50.828125 16.015625 36.375 
Q 16.015625 21.96875 22.65625 14.328125 
Q 29.296875 6.6875 41.796875 6.6875 
Q 48.140625 6.6875 53.78125 8.984375 
Q 59.421875 11.28125 64.40625 15.921875 
L 64.40625 5.609375 
Q 59.234375 2.09375 53.4375 0.328125 
Q 47.65625 -1.421875 41.21875 -1.421875 
Q 24.65625 -1.421875 15.125 8.703125 
Q 5.609375 18.84375 5.609375 36.375 
Q 5.609375 53.953125 15.125 64.078125 
Q 24.65625 74.21875 41.21875 74.21875 
Q 47.75 74.21875 53.53125 72.484375 
Q 59.328125 70.75 64.40625 67.28125 
z
" id="DejaVuSans-67"/>
       <path d="M 54.890625 33.015625 
L 54.890625 0 
L 45.90625 0 
L 45.90625 32.71875 
Q 45.90625 40.484375 42.875 44.328125 
Q 39.84375 48.1875 33.796875 48.1875 
Q 26.515625 48.1875 22.3125 43.546875 
Q 18.109375 38.921875 18.109375 30.90625 
L 18.109375 0 
L 9.078125 0 
L 9.078125 75.984375 
L 18.109375 75.984375 
L 18.109375 46.1875 
Q 21.34375 51.125 25.703125 53.5625 
Q 30.078125 56 35.796875 56 
Q 45.21875 56 50.046875 50.171875 
Q 54.890625 44.34375 54.890625 33.015625 
z
" id="DejaVuSans-104"/>
       <path d="M 34.28125 27.484375 
Q 23.390625 27.484375 19.1875 25 
Q 14.984375 22.515625 14.984375 16.5 
Q 14.984375 11.71875 18.140625 8.90625 
Q 21.296875 6.109375 26.703125 6.109375 
Q 34.1875 6.109375 38.703125 11.40625 
Q 43.21875 16.703125 43.21875 25.484375 
L 43.21875 27.484375 
z
M 52.203125 31.203125 
L 52.203125 0 
L 43.21875 0 
L 43.21875 8.296875 
Q 40.140625 3.328125 35.546875 0.953125 
Q 30.953125 -1.421875 24.3125 -1.421875 
Q 15.921875 -1.421875 10.953125 3.296875 
Q 6 8.015625 6 15.921875 
Q 6 25.140625 12.171875 29.828125 
Q 18.359375 34.515625 30.609375 34.515625 
L 43.21875 34.515625 
L 43.21875 35.40625 
Q 43.21875 41.609375 39.140625 45 
Q 35.0625 48.390625 27.6875 48.390625 
Q 23 48.390625 18.546875 47.265625 
Q 14.109375 46.140625 10.015625 43.890625 
L 10.015625 52.203125 
Q 14.9375 54.109375 19.578125 55.046875 
Q 24.21875 56 28.609375 56 
Q 40.484375 56 46.34375 49.84375 
Q 52.203125 43.703125 52.203125 31.203125 
z
" id="DejaVuSans-97"/>
       <path d="M 41.109375 46.296875 
Q 39.59375 47.171875 37.8125 47.578125 
Q 36.03125 48 33.890625 48 
Q 26.265625 48 22.1875 43.046875 
Q 18.109375 38.09375 18.109375 28.8125 
L 18.109375 0 
L 9.078125 0 
L 9.078125 54.6875 
L 18.109375 54.6875 
L 18.109375 46.1875 
Q 20.953125 51.171875 25.484375 53.578125 
Q 30.03125 56 36.53125 56 
Q 37.453125 56 38.578125 55.875 
Q 39.703125 55.765625 41.0625 55.515625 
z
" id="DejaVuSans-114"/>
       <path d="M 45.40625 27.984375 
Q 45.40625 37.75 41.375 43.109375 
Q 37.359375 48.484375 30.078125 48.484375 
Q 22.859375 48.484375 18.828125 43.109375 
Q 14.796875 37.75 14.796875 27.984375 
Q 14.796875 18.265625 18.828125 12.890625 
Q 22.859375 7.515625 30.078125 7.515625 
Q 37.359375 7.515625 41.375 12.890625 
Q 45.40625 18.265625 45.40625 27.984375 
z
M 54.390625 6.78125 
Q 54.390625 -7.171875 48.1875 -13.984375 
Q 42 -20.796875 29.203125 -20.796875 
Q 24.46875 -20.796875 20.265625 -20.09375 
Q 16.0625 -19.390625 12.109375 -17.921875 
L 12.109375 -9.1875 
Q 16.0625 -11.328125 19.921875 -12.34375 
Q 23.78125 -13.375 27.78125 -13.375 
Q 36.625 -13.375 41.015625 -8.765625 
Q 45.40625 -4.15625 45.40625 5.171875 
L 45.40625 9.625 
Q 42.625 4.78125 38.28125 2.390625 
Q 33.9375 0 27.875 0 
Q 17.828125 0 11.671875 7.65625 
Q 5.515625 15.328125 5.515625 27.984375 
Q 5.515625 40.671875 11.671875 48.328125 
Q 17.828125 56 27.875 56 
Q 33.9375 56 38.28125 53.609375 
Q 42.625 51.21875 45.40625 46.390625 
L 45.40625 54.6875 
L 54.390625 54.6875 
z
" id="DejaVuSans-103"/>
       <path d="M 56.203125 29.59375 
L 56.203125 25.203125 
L 14.890625 25.203125 
Q 15.484375 15.921875 20.484375 11.0625 
Q 25.484375 6.203125 34.421875 6.203125 
Q 39.59375 6.203125 44.453125 7.46875 
Q 49.3125 8.734375 54.109375 11.28125 
L 54.109375 2.78125 
Q 49.265625 0.734375 44.1875 -0.34375 
Q 39.109375 -1.421875 33.890625 -1.421875 
Q 20.796875 -1.421875 13.15625 6.1875 
Q 5.515625 13.8125 5.515625 26.8125 
Q 5.515625 40.234375 12.765625 48.109375 
Q 20.015625 56 32.328125 56 
Q 43.359375 56 49.78125 48.890625 
Q 56.203125 41.796875 56.203125 29.59375 
z
M 47.21875 32.234375 
Q 47.125 39.59375 43.09375 43.984375 
Q 39.0625 48.390625 32.421875 48.390625 
Q 24.90625 48.390625 20.390625 44.140625 
Q 15.875 39.890625 15.1875 32.171875 
z
" id="DejaVuSans-101"/>
       <path id="DejaVuSans-32"/>
       <path d="M 45.40625 46.390625 
L 45.40625 75.984375 
L 54.390625 75.984375 
L 54.390625 0 
L 45.40625 0 
L 45.40625 8.203125 
Q 42.578125 3.328125 38.25 0.953125 
Q 33.9375 -1.421875 27.875 -1.421875 
Q 17.96875 -1.421875 11.734375 6.484375 
Q 5.515625 14.40625 5.515625 27.296875 
Q 5.515625 40.1875 11.734375 48.09375 
Q 17.96875 56 27.875 56 
Q 33.9375 56 38.25 53.625 
Q 42.578125 51.265625 45.40625 46.390625 
z
M 14.796875 27.296875 
Q 14.796875 17.390625 18.875 11.75 
Q 22.953125 6.109375 30.078125 6.109375 
Q 37.203125 6.109375 41.296875 11.75 
Q 45.40625 17.390625 45.40625 27.296875 
Q 45.40625 37.203125 41.296875 42.84375 
Q 37.203125 48.484375 30.078125 48.484375 
Q 22.953125 48.484375 18.875 42.84375 
Q 14.796875 37.203125 14.796875 27.296875 
z
" id="DejaVuSans-100"/>
       <path d="M 54.890625 33.015625 
L 54.890625 0 
L 45.90625 0 
L 45.90625 32.71875 
Q 45.90625 40.484375 42.875 44.328125 
Q 39.84375 48.1875 33.796875 48.1875 
Q 26.515625 48.1875 22.3125 43.546875 
Q 18.109375 38.921875 18.109375 30.90625 
L 18.109375 0 
L 9.078125 0 
L 9.078125 54.6875 
L 18.109375 54.6875 
L 18.109375 46.1875 
Q 21.34375 51.125 25.703125 53.5625 
Q 30.078125 56 35.796875 56 
Q 45.21875 56 50.046875 50.171875 
Q 54.890625 44.34375 54.890625 33.015625 
z
" id="DejaVuSans-110"/>
       <path d="M 44.28125 53.078125 
L 44.28125 44.578125 
Q 40.484375 46.53125 36.375 47.5 
Q 32.28125 48.484375 27.875 48.484375 
Q 21.1875 48.484375 17.84375 46.4375 
Q 14.5 44.390625 14.5 40.28125 
Q 14.5 37.15625 16.890625 35.375 
Q 19.28125 33.59375 26.515625 31.984375 
L 29.59375 31.296875 
Q 39.15625 29.25 43.1875 25.515625 
Q 47.21875 21.78125 47.21875 15.09375 
Q 47.21875 7.46875 41.1875 3.015625 
Q 35.15625 -1.421875 24.609375 -1.421875 
Q 20.21875 -1.421875 15.453125 -0.5625 
Q 10.6875 0.296875 5.421875 2 
L 5.421875 11.28125 
Q 10.40625 8.6875 15.234375 7.390625 
Q 20.0625 6.109375 24.8125 6.109375 
Q 31.15625 6.109375 34.5625 8.28125 
Q 37.984375 10.453125 37.984375 14.40625 
Q 37.984375 18.0625 35.515625 20.015625 
Q 33.0625 21.96875 24.703125 23.78125 
L 21.578125 24.515625 
Q 13.234375 26.265625 9.515625 29.90625 
Q 5.8125 33.546875 5.8125 39.890625 
Q 5.8125 47.609375 11.28125 51.796875 
Q 16.75 56 26.8125 56 
Q 31.78125 56 36.171875 55.265625 
Q 40.578125 54.546875 44.28125 53.078125 
z
" id="DejaVuSans-115"/>
       <path d="M 9.421875 54.6875 
L 18.40625 54.6875 
L 18.40625 0 
L 9.421875 0 
z
M 9.421875 75.984375 
L 18.40625 75.984375 
L 18.40625 64.59375 
L 9.421875 64.59375 
z
" id="DejaVuSans-105"/>
       <path d="M 18.3125 70.21875 
L 18.3125 54.6875 
L 36.8125 54.6875 
L 36.8125 47.703125 
L 18.3125 47.703125 
L 18.3125 18.015625 
Q 18.3125 11.328125 20.140625 9.421875 
Q 21.96875 7.515625 27.59375 7.515625 
L 36.8125 7.515625 
L 36.8125 0 
L 27.59375 0 
Q 17.1875 0 13.234375 3.875 
Q 9.28125 7.765625 9.28125 18.015625 
L 9.28125 47.703125 
L 2.6875 47.703125 
L 2.6875 54.6875 
L 9.28125 54.6875 
L 9.28125 70.21875 
z
" id="DejaVuSans-116"/>
       <path d="M 32.171875 -5.078125 
Q 28.375 -14.84375 24.75 -17.8125 
Q 21.140625 -20.796875 15.09375 -20.796875 
L 7.90625 -20.796875 
L 7.90625 -13.28125 
L 13.1875 -13.28125 
Q 16.890625 -13.28125 18.9375 -11.515625 
Q 21 -9.765625 23.484375 -3.21875 
L 25.09375 0.875 
L 2.984375 54.6875 
L 12.5 54.6875 
L 29.59375 11.921875 
L 46.6875 54.6875 
L 56.203125 54.6875 
z
" id="DejaVuSans-121"/>
      </defs>
      <use xlink:href="#DejaVuSans-67"/>
      <use x="69.824219" xlink:href="#DejaVuSans-104"/>
      <use x="133.203125" xlink:href="#DejaVuSans-97"/>
      <use x="194.482422" xlink:href="#DejaVuSans-114"/>
      <use x="233.845703" xlink:href="#DejaVuSans-103"/>
      <use x="297.322266" xlink:href="#DejaVuSans-101"/>
      <use x="358.845703" xlink:href="#DejaVuSans-32"/>
      <use x="390.632812" xlink:href="#DejaVuSans-100"/>
      <use x="454.109375" xlink:href="#DejaVuSans-101"/>
      <use x="515.632812" xlink:href="#DejaVuSans-110"/>
      <use x="579.011719" xlink:href="#DejaVuSans-115"/>
      <use x="631.111328" xlink:href="#DejaVuSans-105"/>
      <use x="658.894531" xlink:href="#DejaVuSans-116"/>
      <use x="698.103516" xlink:href="#DejaVuSans-121"/>
     </g>
     <!-- (arbitary scale) -->
     <g transform="translate(325.773889 45.39625)scale(0.1 -0.1)">
      <defs>
       <path d="M 48.6875 27.296875 
Q 48.6875 37.203125 44.609375 42.84375 
Q 40.53125 48.484375 33.40625 48.484375 
Q 26.265625 48.484375 22.1875 42.84375 
Q 18.109375 37.203125 18.109375 27.296875 
Q 18.109375 17.390625 22.1875 11.75 
Q 26.265625 6.109375 33.40625 6.109375 
Q 40.53125 6.109375 44.609375 11.75 
Q 48.6875 17.390625 48.6875 27.296875 
z
M 18.109375 46.390625 
Q 20.953125 51.265625 25.265625 53.625 
Q 29.59375 56 35.59375 56 
Q 45.5625 56 51.78125 48.09375 
Q 58.015625 40.1875 58.015625 27.296875 
Q 58.015625 14.40625 51.78125 6.484375 
Q 45.5625 -1.421875 35.59375 -1.421875 
Q 29.59375 -1.421875 25.265625 0.953125 
Q 20.953125 3.328125 18.109375 8.203125 
L 18.109375 0 
L 9.078125 0 
L 9.078125 75.984375 
L 18.109375 75.984375 
z
" id="DejaVuSans-98"/>
       <path d="M 48.78125 52.59375 
L 48.78125 44.1875 
Q 44.96875 46.296875 41.140625 47.34375 
Q 37.3125 48.390625 33.40625 48.390625 
Q 24.65625 48.390625 19.8125 42.84375 
Q 14.984375 37.3125 14.984375 27.296875 
Q 14.984375 17.28125 19.8125 11.734375 
Q 24.65625 6.203125 33.40625 6.203125 
Q 37.3125 6.203125 41.140625 7.25 
Q 44.96875 8.296875 48.78125 10.40625 
L 48.78125 2.09375 
Q 45.015625 0.34375 40.984375 -0.53125 
Q 36.96875 -1.421875 32.421875 -1.421875 
Q 20.0625 -1.421875 12.78125 6.34375 
Q 5.515625 14.109375 5.515625 27.296875 
Q 5.515625 40.671875 12.859375 48.328125 
Q 20.21875 56 33.015625 56 
Q 37.15625 56 41.109375 55.140625 
Q 45.0625 54.296875 48.78125 52.59375 
z
" id="DejaVuSans-99"/>
       <path d="M 9.421875 75.984375 
L 18.40625 75.984375 
L 18.40625 0 
L 9.421875 0 
z
" id="DejaVuSans-108"/>
      </defs>
      <use xlink:href="#DejaVuSans-40"/>
      <use x="39.013672" xlink:href="#DejaVuSans-97"/>
      <use x="100.292969" xlink:href="#DejaVuSans-114"/>
      <use x="141.40625" xlink:href="#DejaVuSans-98"/>
      <use x="204.882812" xlink:href="#DejaVuSans-105"/>
      <use x="232.666016" xlink:href="#DejaVuSans-116"/>
      <use x="271.875" xlink:href="#DejaVuSans-97"/>
      <use x="333.154297" xlink:href="#DejaVuSans-114"/>
      <use x="374.267578" xlink:href="#DejaVuSans-121"/>
      <use x="433.447266" xlink:href="#DejaVuSans-32"/>
      <use x="465.234375" xlink:href="#DejaVuSans-115"/>
      <use x="517.333984" xlink:href="#DejaVuSans-99"/>
      <use x="572.314453" xlink:href="#DejaVuSans-97"/>
      <use x="633.59375" xlink:href="#DejaVuSans-108"/>
      <use x="661.376953" xlink:href="#DejaVuSans-101"/>
      <use x="722.900391" xlink:href="#DejaVuSans-41"/>
     </g>
    </g>
    <g id="line2d_13">
     <path d="M 297.773889 56.574375 
L 317.773889 56.574375 
" style="fill:none;stroke:#1f77b4;stroke-width:1.5;"/>
    </g>
    <g id="text_15">
     <!-- $\psi$ -->
     <g transform="translate(325.773889 60.074375)scale(0.1 -0.1)">
      <use transform="translate(0 0.3125)" xlink:href="#DejaVuSans-Oblique-968"/>
     </g>
    </g>
   </g>
  </g>
 </g>
 <defs>
  <clipPath id="paefaa03f33">
   <rect height="265.9" width="375.868182" x="35.097895" y="17.6"/>
  </clipPath>
 </defs>
</svg>
